HIERARCHY
ROOT Hips
{
	OFFSET 0.000000 0.000000 0.000000
	CHANNELS 6 Xposition Yposition Zposition Xrotation Yrotation Zrotation
	JOINT LeftUpLeg_virtual
	{
		OFFSET 0.000000 0.000000 0.000000
		CHANNELS 3 Xrotation Yrotation Zrotation
		JOINT LeftUpLeg
		{
			OFFSET 15.427100 -6.655098 0.678600
			CHANNELS 3 Xrotation Yrotation Zrotation
			JOINT LeftLeg
			{
				OFFSET 4.081073 -39.591068 13.024000
				CHANNELS 3 Xrotation Yrotation Zrotation
				JOINT LeftFoot
				{
					OFFSET -4.081074 -37.707932 -15.979700
					CHANNELS 3 Xrotation Yrotation Zrotation
					JOINT LeftToeBase
					{
						OFFSET 5.346399 -15.068900 20.645000
						CHANNELS 3 Xrotation Yrotation Zrotation
						JOINT LeftToe_End
						{
							OFFSET 2.754700 0.931300 11.300900
							CHANNELS 3 Xrotation Yrotation Zrotation
							End Site
							{
								OFFSET 0 0 0
							}
						}
					}
				}
			}
		}
	}
	JOINT RightUpLeg_virtual
	{
		OFFSET 0.000000 0.000000 0.000000
		CHANNELS 3 Xrotation Yrotation Zrotation
		JOINT RightUpLeg
		{
			OFFSET -15.569500 -6.655098 0.678600
			CHANNELS 3 Xrotation Yrotation Zrotation
			JOINT RightLeg
			{
				OFFSET -4.081825 -39.591045 13.023800
				CHANNELS 3 Xrotation Yrotation Zrotation
				JOINT RightFoot
				{
					OFFSET 4.081824 -37.707954 -15.979600
					CHANNELS 3 Xrotation Yrotation Zrotation
					JOINT RightToeBase
					{
						OFFSET -5.346400 -15.068900 20.645000
						CHANNELS 3 Xrotation Yrotation Zrotation
						JOINT RightToe_End
						{
							OFFSET -2.754700 0.931300 11.300900
							CHANNELS 3 Xrotation Yrotation Zrotation
							End Site
							{
								OFFSET 0 0 0
							}
						}
					}
				}
			}
		}
	}
	JOINT Spine_virtual
	{
		OFFSET 0.000000 0.000000 0.000000
		CHANNELS 3 Xrotation Yrotation Zrotation
		JOINT Spine
		{
			OFFSET -0.279200 12.230698 -2.892100
			CHANNELS 3 Xrotation Yrotation Zrotation
			JOINT Spine1
			{
				OFFSET -0.232667 10.192268 -1.242267
				CHANNELS 3 Xrotation Yrotation Zrotation
				JOINT Spine1_split
				{
					OFFSET -0.232667 10.192268 -1.242267
					CHANNELS 3 Xrotation Yrotation Zrotation
					JOINT Spine2
					{
						OFFSET -0.232667 10.192268 -1.242267
						CHANNELS 3 Xrotation Yrotation Zrotation
						JOINT Neck_virtual
						{
							OFFSET 0.000000 0.000000 0.000000
							CHANNELS 3 Xrotation Yrotation Zrotation
							JOINT Neck
							{
								OFFSET -0.418800 17.814194 8.416900
								CHANNELS 3 Xrotation Yrotation Zrotation
								JOINT Head
								{
									OFFSET 0.000000 7.031097 3.806800
									CHANNELS 3 Xrotation Yrotation Zrotation
									JOINT HeadTop_End
									{
										OFFSET 0.000000 24.646606 12.978600
										CHANNELS 3 Xrotation Yrotation Zrotation
										End Site
										{
											OFFSET 0 0 0
										}
									}
								}
							}
						}
						JOINT LeftShoulder_virtual
						{
							OFFSET 0.000000 0.000000 0.000000
							CHANNELS 3 Xrotation Yrotation Zrotation
							JOINT LeftShoulder
							{
								OFFSET 8.476499 7.247704 -3.868750
								CHANNELS 3 Xrotation Yrotation Zrotation
								JOINT LeftShoulder_split
								{
									OFFSET 8.476499 7.247704 -3.868750
									CHANNELS 3 Xrotation Yrotation Zrotation
									JOINT LeftArm
									{
										OFFSET 9.308998 -2.777710 0.208600
										CHANNELS 3 Xrotation Yrotation Zrotation
										JOINT LeftForeArm
										{
											OFFSET 29.972298 0.000000 0.000000
											CHANNELS 3 Xrotation Yrotation Zrotation
											JOINT LeftHand
											{
												OFFSET 26.026505 0.000000 0.000000
												CHANNELS 3 Xrotation Yrotation Zrotation
												End Site
												{
													OFFSET 0 0 0
												}
											}
										}
									}
								}
							}
						}
						JOINT RightShoulder_virtual
						{
							OFFSET 0.000000 0.000000 0.000000
							CHANNELS 3 Xrotation Yrotation Zrotation
							JOINT RightShoulder
							{
								OFFSET -7.570500 7.247704 -3.868750
								CHANNELS 3 Xrotation Yrotation Zrotation
								JOINT RightShoulder_split
								{
									OFFSET -7.570500 7.247704 -3.868750
									CHANNELS 3 Xrotation Yrotation Zrotation
									JOINT RightArm
									{
										OFFSET -9.308998 -2.777710 0.208500
										CHANNELS 3 Xrotation Yrotation Zrotation
										JOINT RightForeArm
										{
											OFFSET -29.972300 0.000000 0.000000
											CHANNELS 3 Xrotation Yrotation Zrotation
											JOINT RightHand
											{
												OFFSET -26.026505 0.000000 0.000000
												CHANNELS 3 Xrotation Yrotation Zrotation
												End Site
												{
													OFFSET 0 0 0
												}
											}
										}
									}
								}
							}
						}
					}
				}
			}
		}
	}
}
MOTION
Frames: 5
Frame Time: 0.03333333
0.662831 76.176903 1.516502 0.000000 0.000000 0.000000 6.577783 -58.848848 8.633117 -34.959920 5.557091 31.116088 37.166321 -8.523518 -6.943937 -7.131522 -3.989084 -13.647768 1.895253 -0.126026 -1.270439 0.000000 0.000000 0.000000 6.882988 -59.179716 9.225111 -32.258820 -3.930161 -35.819537 49.658252 8.302305 -2.990174 -19.985540 -4.696173 23.265183 8.167916 0.954869 -0.170676 0.000000 0.000000 0.000000 9.149592 -55.420882 10.340885 8.859528 -1.803048 -1.541519 8.619433 0.493758 -5.852676 -0.458614 -4.785517 1.068838 0.000000 0.000000 0.000000 8.462924 1.019479 -4.768046 -15.120297 27.004997 6.429400 -2.807271 36.084965 -6.853250 0.000000 0.000000 0.000000 8.518859 1.120372 -5.529352 -5.879427 -9.428706 -1.088150 -5.915998 1.089952 -4.144163 -19.201897 -1.175742 -33.062716 2.999762 -34.465254 7.947845 0.000000 0.000000 0.000000 9.051747 1.150869 -5.393404 -2.946159 11.459261 -3.297965 2.058045 -3.704554 8.339923 -43.506567 -19.886343 33.294228 -151.987951 66.807023 149.823847 0.000000 0.000000 0.000000 
0.827070 76.178162 0.778400 0.000000 0.000000 0.000000 7.024649 -58.630679 9.220608 -34.628226 5.804201 30.519631 36.450834 -7.922019 -7.355164 -7.526756 -3.917216 -13.417859 1.810875 -0.156725 -1.364563 0.000000 0.000000 0.000000 7.104773 -59.737347 9.743210 -32.468459 -4.056354 -36.152287 49.549546 8.365492 -2.827378 -19.600870 -4.516939 22.995007 7.525981 0.824649 0.108459 0.000000 0.000000 0.000000 9.449327 -55.218227 10.786796 8.775608 -1.614941 -1.468884 8.507684 0.456870 -5.851945 -0.309802 -4.558248 1.478758 0.000000 0.000000 0.000000 8.546390 0.934125 -4.660958 -14.999756 27.522951 6.468493 -2.209680 35.613364 -6.825238 0.000000 0.000000 0.000000 8.564156 1.063274 -5.470164 -5.869030 -9.571297 -1.454119 -6.915477 0.680103 -4.721410 -18.793322 -1.157305 -33.782416 2.940029 -35.878089 7.623633 0.000000 0.000000 0.000000 8.925010 1.030808 -5.167355 -2.342531 12.128995 -2.907384 1.494174 -3.993999 6.642738 -43.477429 -22.317747 32.555755 -149.560379 68.104363 147.458607 0.000000 0.000000 0.000000 
0.961981 76.198669 -0.116016 0.000000 0.000000 0.000000 7.233163 -58.981545 9.983954 -33.721805 6.643874 29.837528 35.447329 -6.948716 -7.897907 -7.908008 -3.762466 -13.545933 1.657445 -0.209184 -1.262535 0.000000 0.000000 0.000000 7.050532 -60.685561 10.418222 -33.144842 -4.162251 -36.905209 49.378060 8.913281 -2.461971 -18.923587 -4.040820 22.963181 6.650236 0.756072 0.160034 0.000000 0.000000 0.000000 9.151793 -55.360292 11.003819 9.046974 -1.309610 -1.396815 8.604921 0.493675 -5.770307 0.025955 -3.870290 1.508778 0.000000 0.000000 0.000000 8.673082 0.983656 -4.566235 -15.782574 27.758027 7.512960 -1.063248 34.986811 -7.049414 0.000000 0.000000 0.000000 8.709484 1.058030 -5.339958 -5.897615 -10.069838 -1.903478 -7.532295 -0.275674 -5.182717 -19.028195 1.143170 -34.844500 3.276962 -37.876117 6.628762 0.000000 0.000000 0.000000 8.839635 0.990090 -4.888107 -1.481620 12.576770 -2.221742 0.468402 -3.317536 5.097421 -44.081597 -23.954711 30.110254 -142.068577 69.250359 140.558039 0.000000 0.000000 0.000000 
0.980444 76.273842 -0.734875 0.000000 0.000000 0.000000 7.288320 -60.106320 10.930613 -32.225478 8.038100 29.084749 34.528184 -5.651388 -8.422296 -8.317492 -3.424285 -13.937192 1.934682 -0.270112 -1.101273 0.000000 0.000000 0.000000 6.911526 -62.002101 11.246226 -34.118349 -3.988705 -37.954046 49.204843 9.804451 -1.877467 -18.058511 -3.274939 23.074546 5.671185 0.752014 0.023035 0.000000 0.000000 0.000000 8.406908 -56.102586 11.091531 9.614303 -0.908205 -1.339374 8.889802 0.628573 -5.567181 0.257167 -3.057891 1.294004 0.000000 0.000000 0.000000 8.846044 1.170948 -4.432699 -17.100627 27.678228 9.088204 0.683160 34.391901 -7.666992 0.000000 0.000000 0.000000 8.932363 1.140659 -5.096473 -5.997955 -10.923211 -2.615323 -7.990456 -1.460446 -5.324918 -19.257923 5.188663 -35.852793 4.011045 -40.150683 5.139938 0.000000 0.000000 0.000000 8.880136 1.054845 -4.573800 -0.426238 12.958557 -1.421064 -0.760728 -2.406673 3.810342 -44.975430 -24.148786 26.014461 -130.122890 69.521251 129.666893 0.000000 0.000000 0.000000 
0.858934 76.358780 -0.938274 0.000000 0.000000 0.000000 7.353285 -62.199097 12.096275 -30.245153 9.825486 28.308233 33.965721 -4.076471 -8.818931 -9.061472 -2.714928 -14.484207 2.790505 -0.299996 -1.009511 0.000000 0.000000 0.000000 6.736903 -63.912156 12.158977 -35.328740 -3.269466 -38.971389 48.940225 10.873212 -1.119065 -17.114374 -2.338468 23.145004 4.525761 0.812471 -0.198193 0.000000 0.000000 0.000000 7.220058 -57.711465 11.108097 10.334923 -0.434309 -1.263719 9.319429 0.861868 -5.154552 0.443117 -2.299906 1.072222 0.000000 0.000000 0.000000 9.095723 1.467679 -4.172304 -18.317213 27.407560 10.720057 3.034499 34.068062 -8.883376 0.000000 0.000000 0.000000 9.302135 1.313787 -4.645580 -6.215444 -12.117678 -3.698370 -8.171057 -2.182090 -5.452585 -19.014041 9.826398 -36.431826 5.387800 -42.758699 3.525996 0.000000 0.000000 0.000000 9.109751 1.213686 -4.170791 0.720429 13.374156 -0.811407 -1.736059 -2.044073 2.631556 -45.514034 -22.330337 20.587105 -115.579409 68.428660 116.486226 0.000000 0.000000 0.000000 
